# Blender 4.3.2
# www.blender.org
mtllib mushroom.mtl
o Cylinder
v 0.000000 -0.002610 -0.142431
v 0.000000 0.528058 -0.142431
v 0.071215 -0.002610 -0.123349
v 0.071215 0.528058 -0.123349
v 0.123349 -0.002610 -0.071215
v 0.123349 0.528058 -0.071215
v 0.142431 -0.002610 0.000000
v 0.142431 0.528058 0.000000
v 0.123349 -0.002610 0.071215
v 0.123349 0.528058 0.071215
v 0.071215 -0.002610 0.123349
v 0.071215 0.528058 0.123349
v 0.000000 -0.002610 0.142431
v 0.000000 0.528058 0.142431
v -0.071215 -0.002610 0.123349
v -0.071215 0.528058 0.123349
v -0.123349 -0.002610 0.071215
v -0.123349 0.528058 0.071215
v -0.142431 -0.002610 0.000000
v -0.142431 0.528058 0.000000
v -0.123349 -0.002610 -0.071215
v -0.123349 0.528058 -0.071215
v -0.071215 -0.002610 -0.123349
v -0.071215 0.528058 -0.123349
v 0.279007 0.544913 -0.483254
v -0.000000 0.544913 -0.558014
v 0.483254 0.544913 -0.279007
v 0.558014 0.544913 -0.000000
v 0.483254 0.544913 0.279007
v 0.279007 0.544913 0.483254
v -0.000000 0.544913 0.558014
v -0.279007 0.544913 0.483254
v -0.483254 0.544913 0.279007
v -0.558014 0.544913 -0.000000
v -0.483254 0.544913 -0.279007
v -0.279007 0.544913 -0.483254
v 0.121014 0.849145 -0.209603
v -0.000000 0.849145 -0.242029
v 0.209603 0.849145 -0.121014
v 0.242029 0.849145 -0.000000
v 0.209603 0.849145 0.121014
v 0.121014 0.849145 0.209603
v -0.000000 0.849145 0.242029
v -0.121014 0.849145 0.209603
v -0.209603 0.849145 0.121014
v -0.242029 0.849145 -0.000000
v -0.209603 0.849145 -0.121014
v -0.121014 0.849145 -0.209603
v 0.263993 0.706048 -0.457250
v -0.000000 0.706048 -0.527986
v 0.457250 0.706048 -0.263993
v 0.527986 0.706048 -0.000000
v 0.457250 0.706048 0.263993
v 0.263993 0.706048 0.457250
v -0.000000 0.706048 0.527986
v -0.263993 0.706048 0.457250
v -0.457250 0.706048 0.263993
v -0.527986 0.706048 -0.000000
v -0.457250 0.706048 -0.263993
v -0.263993 0.706048 -0.457250
vn 0.2588 -0.0000 -0.9659
vn 0.7071 -0.0000 -0.7071
vn 0.9659 -0.0000 -0.2588
vn 0.9659 -0.0000 0.2588
vn 0.7071 -0.0000 0.7071
vn 0.2588 -0.0000 0.9659
vn -0.2588 -0.0000 0.9659
vn -0.7071 -0.0000 0.7071
vn -0.9659 -0.0000 0.2588
vn -0.9659 -0.0000 -0.2588
vn -0.0109 -0.9991 0.0405
vn -0.7071 -0.0000 -0.7071
vn -0.2588 -0.0000 -0.9659
vn -0.0000 -1.0000 -0.0000
vn -0.2547 0.1772 0.9506
vn 0.0109 -0.9991 0.0405
vn 0.0297 -0.9991 0.0297
vn 0.0405 -0.9991 0.0109
vn -0.0109 -0.9991 -0.0405
vn 0.0109 -0.9991 -0.0405
vn 0.0405 -0.9991 -0.0109
vn -0.0297 -0.9991 -0.0297
vn 0.0297 -0.9991 -0.0297
vn -0.0405 -0.9991 -0.0109
vn -0.0405 -0.9991 0.0109
vn -0.0297 -0.9991 0.0297
vn -0.0000 1.0000 -0.0000
vn 0.9506 0.1772 0.2547
vn -0.6959 0.1772 -0.6959
vn 0.2547 0.1772 -0.9506
vn -0.6959 0.1772 0.6959
vn 0.6959 0.1772 0.6959
vn -0.2547 0.1772 -0.9506
vn 0.6959 0.1772 -0.6959
vn -0.9506 0.1772 0.2547
vn 0.2547 0.1772 0.9506
vn 0.9506 0.1772 -0.2547
vn -0.9506 0.1772 -0.2547
vn 0.1191 0.8879 -0.4443
vn 0.3253 0.8879 -0.3253
vn 0.4443 0.8879 -0.1191
vn 0.4443 0.8879 0.1191
vn 0.3253 0.8879 0.3253
vn 0.1191 0.8879 0.4443
vn -0.1191 0.8879 0.4443
vn -0.3253 0.8879 0.3253
vn -0.4443 0.8879 0.1191
vn -0.4443 0.8879 -0.1191
vn -0.3253 0.8879 -0.3253
vn -0.1191 0.8879 -0.4443
vt 0.756240 0.003987
vt 0.786377 0.251920
vt 0.756240 0.253467
vt 0.691304 0.258347
vt 0.721441 0.509374
vt 0.691304 0.507827
vt 0.721441 0.259895
vt 0.756240 0.509374
vt 0.756240 0.259895
vt 0.786377 0.507827
vt 0.691304 0.514255
vt 0.721441 0.765282
vt 0.691304 0.763735
vt 0.721441 0.515802
vt 0.756240 0.765282
vt 0.756240 0.515802
vt 0.786377 0.763735
vt 0.791257 0.002440
vt 0.821393 0.253467
vt 0.791257 0.251920
vt 0.821393 0.003987
vt 0.856192 0.253467
vt 0.856192 0.003987
vt 0.886329 0.251920
vt 0.321781 0.239445
vt 0.511250 0.325013
vt 0.321781 0.274244
vt 0.691304 0.002440
vt 0.721441 0.253467
vt 0.691304 0.251920
vt 0.721441 0.003987
vt 0.563666 0.757150
vt 0.646001 0.839485
vt 0.533530 0.869622
vt 0.598837 0.120510
vt 0.516130 0.012462
vt 0.592775 0.002440
vt 0.304381 0.209309
vt 0.511250 0.188677
vt 0.274244 0.191909
vt 0.443082 0.070608
vt 0.239445 0.191909
vt 0.325013 0.002440
vt 0.209309 0.304381
vt 0.002440 0.325013
vt 0.191909 0.274244
vt 0.002440 0.188677
vt 0.191909 0.239445
vt 0.209309 0.209309
vt 0.188677 0.002440
vt 0.239445 0.321781
vt 0.070608 0.443082
vt 0.070608 0.070608
vt 0.274244 0.321781
vt 0.188677 0.511250
vt 0.304381 0.304381
vt 0.325013 0.511250
vt 0.443082 0.443082
vt 0.162378 0.676068
vt 0.353499 0.727279
vt 0.213589 0.867189
vt 0.686424 0.120510
vt 0.603717 0.012462
vt 0.680362 0.002440
vt 0.592775 0.752269
vt 0.521866 0.630531
vt 0.598837 0.634200
vt 0.598837 0.497865
vt 0.516130 0.389817
vt 0.592775 0.379795
vt 0.680362 0.752269
vt 0.609453 0.630532
vt 0.686424 0.634200
vt 0.592775 0.374915
vt 0.521866 0.253177
vt 0.598837 0.256845
vt 0.521866 0.501533
vt 0.680362 0.374915
vt 0.609453 0.253177
vt 0.686424 0.256845
vt 0.609453 0.501533
vt 0.686424 0.497865
vt 0.521866 0.124178
vt 0.609453 0.124178
vt 0.603717 0.389817
vt 0.680362 0.379795
vt 0.162378 0.837622
vt 0.002440 0.821344
vt 0.132812 0.786411
vt 0.066939 0.933060
vt 0.307654 0.997560
vt 0.178656 0.997560
vt 0.323932 0.837622
vt 0.272721 0.867189
vt 0.353499 0.786411
vt 0.419371 0.933061
vt 0.483870 0.821344
vt 0.323932 0.676068
vt 0.483870 0.692346
vt 0.272722 0.646501
vt 0.419371 0.580629
vt 0.178656 0.516130
vt 0.307654 0.516130
vt 0.213589 0.646501
vt 0.132812 0.727278
vt 0.066940 0.580629
vt 0.002440 0.692346
vt 0.786377 0.002440
vt 0.786377 0.258347
vt 0.786377 0.514255
vt 0.886329 0.002440
vt 0.516130 0.839485
vt 0.516130 0.804686
vt 0.533530 0.774549
vt 0.598465 0.757150
vt 0.628602 0.774549
vt 0.646001 0.804686
vt 0.628602 0.869622
vt 0.598465 0.887021
vt 0.563666 0.887021
vt 0.516130 0.742248
vt 0.603717 0.742248
vt 0.516130 0.364893
vt 0.603717 0.364893
s 0
f 2/1/1 3/2/1 1/3/1
f 4/4/2 5/5/2 3/6/2
f 6/7/3 7/8/3 5/5/3
f 8/9/4 9/10/4 7/8/4
f 10/11/5 11/12/5 9/13/5
f 12/14/6 13/15/6 11/12/6
f 14/16/7 15/17/7 13/15/7
f 16/18/8 17/19/8 15/20/8
f 18/21/9 19/22/9 17/19/9
f 20/23/10 21/24/10 19/22/10
f 14/25/11 32/26/11 16/27/11
f 22/28/12 23/29/12 21/30/12
f 24/31/13 1/3/13 23/29/13
f 7/32/14 15/33/14 23/34/14
f 31/35/15 56/36/15 32/37/15
f 12/38/16 31/39/16 14/25/16
f 10/40/17 30/41/17 12/38/17
f 8/42/18 29/43/18 10/40/18
f 24/44/19 26/45/19 2/46/19
f 2/46/20 25/47/20 4/48/20
f 6/49/21 28/50/21 8/42/21
f 22/51/22 36/52/22 24/44/22
f 4/48/23 27/53/23 6/49/23
f 20/54/24 35/55/24 22/51/24
f 18/56/25 34/57/25 20/54/25
f 16/27/26 33/58/26 18/56/26
f 47/59/27 43/60/27 39/61/27
f 28/62/28 53/63/28 29/64/28
f 35/65/29 60/66/29 36/67/29
f 26/68/30 49/69/30 25/70/30
f 32/71/31 57/72/31 33/73/31
f 29/74/32 54/75/32 30/76/32
f 36/67/33 50/77/33 26/68/33
f 25/78/34 51/79/34 27/80/34
f 33/73/35 58/81/35 34/82/35
f 30/76/36 55/83/36 31/35/36
f 27/80/37 52/84/37 28/62/37
f 34/82/38 59/85/38 35/86/38
f 37/87/39 50/88/39 38/89/39
f 39/61/40 49/90/40 37/87/40
f 39/61/41 52/91/41 51/92/41
f 41/93/42 52/91/42 40/94/42
f 42/95/43 53/96/43 41/93/43
f 43/60/44 54/97/44 42/95/44
f 44/98/45 55/99/45 43/60/45
f 45/100/46 56/101/46 44/98/46
f 45/100/47 58/102/47 57/103/47
f 47/59/48 58/102/48 46/104/48
f 48/105/49 59/106/49 47/59/49
f 48/105/50 50/88/50 60/107/50
f 2/1/1 4/108/1 3/2/1
f 4/4/2 6/7/2 5/5/2
f 6/7/3 8/9/3 7/8/3
f 8/9/4 10/109/4 9/10/4
f 10/11/5 12/14/5 11/12/5
f 12/14/6 14/16/6 13/15/6
f 14/16/7 16/110/7 15/17/7
f 16/18/8 18/21/8 17/19/8
f 18/21/9 20/23/9 19/22/9
f 20/23/10 22/111/10 21/24/10
f 14/25/11 31/39/11 32/26/11
f 22/28/12 24/31/12 23/29/12
f 24/31/13 2/1/13 1/3/13
f 23/34/14 1/112/14 3/113/14
f 3/113/14 5/114/14 7/32/14
f 7/32/14 9/115/14 11/116/14
f 11/116/14 13/117/14 15/33/14
f 15/33/14 17/118/14 19/119/14
f 19/119/14 21/120/14 23/34/14
f 23/34/14 3/113/14 7/32/14
f 7/32/14 11/116/14 15/33/14
f 15/33/14 19/119/14 23/34/14
f 31/35/15 55/83/15 56/36/15
f 12/38/16 30/41/16 31/39/16
f 10/40/17 29/43/17 30/41/17
f 8/42/18 28/50/18 29/43/18
f 24/44/19 36/52/19 26/45/19
f 2/46/20 26/45/20 25/47/20
f 6/49/21 27/53/21 28/50/21
f 22/51/22 35/55/22 36/52/22
f 4/48/23 25/47/23 27/53/23
f 20/54/24 34/57/24 35/55/24
f 18/56/25 33/58/25 34/57/25
f 16/27/26 32/26/26 33/58/26
f 39/61/27 37/87/27 38/89/27
f 38/89/27 48/105/27 47/59/27
f 47/59/27 46/104/27 45/100/27
f 45/100/27 44/98/27 43/60/27
f 43/60/27 42/95/27 41/93/27
f 41/93/27 40/94/27 39/61/27
f 39/61/27 38/89/27 47/59/27
f 47/59/27 45/100/27 43/60/27
f 43/60/27 41/93/27 39/61/27
f 28/62/28 52/84/28 53/63/28
f 35/65/29 59/121/29 60/66/29
f 26/68/30 50/77/30 49/69/30
f 32/71/31 56/122/31 57/72/31
f 29/74/32 53/123/32 54/75/32
f 36/67/33 60/66/33 50/77/33
f 25/78/34 49/124/34 51/79/34
f 33/73/35 57/72/35 58/81/35
f 30/76/36 54/75/36 55/83/36
f 27/80/37 51/79/37 52/84/37
f 34/82/38 58/81/38 59/85/38
f 37/87/39 49/90/39 50/88/39
f 39/61/40 51/92/40 49/90/40
f 39/61/41 40/94/41 52/91/41
f 41/93/42 53/96/42 52/91/42
f 42/95/43 54/97/43 53/96/43
f 43/60/44 55/99/44 54/97/44
f 44/98/45 56/101/45 55/99/45
f 45/100/46 57/103/46 56/101/46
f 45/100/47 46/104/47 58/102/47
f 47/59/48 59/106/48 58/102/48
f 48/105/49 60/107/49 59/106/49
f 48/105/50 38/89/50 50/88/50
